<svg xmlns="http://www.w3.org/2000/svg" xmlns:xlink="http://www.w3.org/1999/xlink" width="500" zoomAndPan="magnify" viewBox="0 0 375 374.999991" height="500" preserveAspectRatio="xMidYMid meet" version="1.0"><defs><g/><clipPath id="id1"><path d="M 122 114.058594 L 253 114.058594 L 253 232.558594 L 122 232.558594 Z M 122 114.058594 " clip-rule="nonzero"/></clipPath><clipPath id="id2"><path d="M 112.5 193 L 120 193 L 120 219 L 112.5 219 Z M 112.5 193 " clip-rule="nonzero"/></clipPath><clipPath id="id3"><path d="M 255 193 L 262.5 193 L 262.5 219 L 255 219 Z M 255 193 " clip-rule="nonzero"/></clipPath><clipPath id="id4"><path d="M 154.714844 191 L 219.964844 191 L 219.964844 219 L 154.714844 219 Z M 154.714844 191 " clip-rule="nonzero"/></clipPath><clipPath id="id5"><path d="M 154.714844 199 L 219.964844 199 L 219.964844 227 L 154.714844 227 Z M 154.714844 199 " clip-rule="nonzero"/></clipPath><clipPath id="id6"><path d="M 154.714844 187 L 219.964844 187 L 219.964844 221 L 154.714844 221 Z M 154.714844 187 " clip-rule="nonzero"/></clipPath><clipPath id="id7"><path d="M 154.714844 187 L 219.964844 187 L 219.964844 228 L 154.714844 228 Z M 154.714844 187 " clip-rule="nonzero"/></clipPath><clipPath id="id8"><path d="M 109 86 L 151 86 L 151 126 L 109 126 Z M 109 86 " clip-rule="nonzero"/></clipPath><clipPath id="id9"><path d="M 108.113281 104.472656 L 139.851562 75.835938 L 159.949219 98.105469 L 128.214844 126.746094 Z M 108.113281 104.472656 " clip-rule="nonzero"/></clipPath><clipPath id="id10"><path d="M 108.113281 104.472656 L 139.851562 75.835938 L 159.949219 98.105469 L 128.214844 126.746094 Z M 108.113281 104.472656 " clip-rule="nonzero"/></clipPath><clipPath id="id11"><path d="M 108.113281 104.472656 L 139.851562 75.835938 L 159.949219 98.105469 L 128.214844 126.746094 Z M 108.113281 104.472656 " clip-rule="nonzero"/></clipPath></defs><rect x="-37.5" width="450" fill="#ffffff" y="-37.499999" height="449.999989" fill-opacity="1"/><rect x="-37.5" width="450" fill="#ffffff" y="-37.499999" height="449.999989" fill-opacity="1"/><rect x="-37.5" width="450" fill="#ffffff" y="-37.499999" height="449.999989" fill-opacity="1"/><rect x="-37.5" width="450" fill="#ffffff" y="-37.499999" height="449.999989" fill-opacity="1"/><g clip-path="url(#id1)"><path fill="#000000" d="M 252.144531 189.789062 C 252.582031 183.585938 253.734375 152.371094 234.839844 131.839844 C 223.6875 119.722656 207.832031 113.765625 187.707031 114.164062 C 167.589844 113.78125 151.722656 119.722656 140.570312 131.839844 C 122.15625 151.847656 122.78125 182.011719 123.230469 189.269531 C 122.964844 190.273438 122.820312 191.328125 122.820312 192.417969 L 122.820312 220.253906 C 122.820312 227.003906 128.273438 232.476562 135.003906 232.476562 L 143.464844 232.476562 C 150.191406 232.476562 155.644531 227.003906 155.644531 220.253906 L 155.644531 192.417969 C 155.644531 185.667969 150.191406 180.195312 143.464844 180.195312 L 135.003906 180.195312 C 134.085938 180.195312 133.191406 180.300781 132.332031 180.492188 C 132.792969 169.394531 135.476562 150.859375 147.316406 138.023438 C 156.636719 127.921875 170.21875 122.964844 187.613281 123.332031 L 187.800781 123.332031 C 205.203125 122.980469 218.777344 127.921875 228.09375 138.023438 C 239.949219 150.871094 242.625 169.4375 243.082031 180.53125 C 242.171875 180.3125 241.226562 180.195312 240.25 180.195312 L 231.789062 180.195312 C 225.058594 180.195312 219.605469 185.667969 219.605469 192.417969 L 219.605469 220.253906 C 219.605469 227.003906 225.058594 232.476562 231.789062 232.476562 L 240.25 232.476562 C 246.976562 232.476562 252.433594 227.003906 252.433594 220.253906 L 252.433594 192.417969 C 252.433594 191.511719 252.332031 190.632812 252.144531 189.789062 Z M 252.144531 189.789062 " fill-opacity="1" fill-rule="nonzero"/></g><g clip-path="url(#id2)"><path fill="#000000" d="M 119.859375 193.097656 L 112.5 197.421875 L 112.5 213.972656 L 119.859375 218.8125 " fill-opacity="1" fill-rule="nonzero"/></g><g clip-path="url(#id3)"><path fill="#000000" d="M 255.140625 193.097656 L 262.5 197.421875 L 262.5 213.972656 L 255.140625 218.8125 " fill-opacity="1" fill-rule="nonzero"/></g><g clip-path="url(#id4)"><path fill="#100f0d" d="M 154.855469 209.128906 C 159.410156 194.289062 160.613281 210.121094 162.054688 209.988281 C 163.042969 209.898438 163.023438 203.453125 163.5625 203.429688 C 164.371094 203.394531 165.175781 217.839844 166.140625 217.839844 C 167.425781 217.847656 168.078125 192.355469 169.367188 192.347656 C 170.667969 192.34375 171.792969 218.300781 172.804688 218.269531 C 173.558594 218.25 174.429688 203.777344 175.480469 203.75 C 176.21875 203.730469 176.910156 210.882812 177.792969 210.847656 C 178.589844 210.820312 178.8125 204.964844 179.898438 204.824219 C 181.5 204.621094 182.433594 217.09375 184.09375 216.980469 C 186.429688 216.824219 186.304688 191.832031 187.316406 191.8125 C 188.34375 191.792969 189.476562 217.421875 190.863281 217.410156 C 191.929688 217.402344 192.320312 202.277344 193.875 202.246094 C 195.089844 202.21875 195.710938 211.460938 196.242188 211.386719 C 196.699219 211.324219 197.085938 204.578125 197.613281 204.503906 C 198.121094 204.429688 198.476562 210.875 199.464844 210.847656 C 200.949219 210.816406 201.632812 196.199219 202.152344 196.222656 C 202.699219 196.246094 203.152344 212.597656 204.199219 212.679688 C 205.0625 212.746094 206.003906 201.625 207.851562 201.597656 C 209.695312 201.570312 210.136719 212.691406 211.398438 212.570312 C 212.453125 212.46875 212.363281 204.53125 213.117188 204.503906 C 213.769531 204.480469 214.324219 210.441406 214.726562 210.417969 C 215.433594 210.378906 215.539062 191.671875 215.964844 191.648438 C 216.449219 191.625 217.925781 214.390625 218.277344 215.796875 C 218.523438 216.796875 219.394531 215.542969 219.886719 209.714844 L 154.855469 209.128906 " fill-opacity="1" fill-rule="nonzero"/></g><g clip-path="url(#id5)"><path fill="#100f0d" d="M 154.855469 209.128906 C 159.347656 223.773438 160.648438 208.007812 162.054688 208.136719 C 163.042969 208.226562 163.023438 214.675781 163.5625 214.699219 C 164.371094 214.730469 165.175781 200.289062 166.140625 200.285156 C 167.425781 200.28125 168.078125 225.769531 169.367188 225.777344 C 170.667969 225.785156 171.792969 199.824219 172.804688 199.855469 C 173.558594 199.875 174.429688 214.351562 175.480469 214.375 C 176.21875 214.394531 176.910156 207.242188 177.792969 207.277344 C 178.589844 207.304688 178.8125 213.160156 179.898438 213.300781 C 181.5 213.503906 182.433594 201.035156 184.09375 201.144531 C 186.429688 201.304688 186.304688 226.296875 187.316406 226.3125 C 188.34375 226.335938 189.476562 200.703125 190.863281 200.714844 C 191.929688 200.722656 192.320312 215.847656 193.875 215.882812 C 195.089844 215.910156 195.710938 206.664062 196.242188 206.738281 C 196.699219 206.800781 197.085938 213.546875 197.613281 213.621094 C 198.121094 213.695312 198.476562 207.253906 199.464844 207.277344 C 200.949219 207.3125 201.632812 221.925781 202.152344 221.90625 C 202.699219 221.882812 203.152344 205.523438 204.199219 205.449219 C 205.0625 205.382812 206.003906 216.5 207.851562 216.527344 C 209.695312 216.554688 210.136719 205.4375 211.398438 205.554688 C 212.453125 205.65625 212.363281 213.59375 213.117188 213.621094 C 213.769531 213.648438 214.324219 207.683594 214.726562 207.707031 C 215.433594 207.746094 215.539062 226.453125 215.964844 226.476562 C 216.449219 226.503906 216.828125 202.332031 218.277344 202.328125 C 218.851562 202.328125 219.394531 203.890625 219.886719 209.714844 L 154.855469 209.128906 " fill-opacity="1" fill-rule="nonzero"/></g><g clip-path="url(#id6)"><path fill="#100f0d" d="M 214.296875 204.359375 Z M 205.359375 209.101562 Z M 217.664062 211.371094 Z M 191.832031 220.167969 C 191.425781 213.53125 191.28125 191.4375 190.992188 188.347656 C 190.722656 191.359375 190.691406 210.410156 190.214844 219.628906 C 189.84375 219.628906 189.785156 205.917969 189.546875 202.21875 C 189.371094 205.789062 189.304688 214.964844 188.785156 206.386719 C 188.660156 204.296875 188.46875 201.140625 188.238281 201.007812 C 187.964844 201.191406 187.425781 207.328125 187.425781 207.328125 L 187.292969 207.328125 C 187.089844 213.179688 186.699219 213.519531 186.527344 208.589844 C 186.414062 205.394531 186.347656 200.816406 186.285156 198.761719 C 186.191406 202.628906 186.203125 208.816406 185.988281 208.847656 L 185.964844 208.851562 L 185.941406 208.835938 C 185.816406 208.734375 185.734375 206.128906 185.589844 205.453125 C 185.445312 206.296875 185.480469 210.042969 185.175781 210.113281 C 185.15625 210.117188 185.128906 210.113281 185.113281 210.101562 C 184.796875 209.867188 184.671875 203.796875 184.296875 203.660156 C 183.917969 203.789062 183.679688 209.984375 183.445312 210.164062 L 183.429688 210.179688 L 183.394531 210.175781 C 183.097656 210.125 183.042969 203.3125 182.902344 200.902344 C 182.753906 203.101562 182.636719 209.078125 182.25 209.101562 C 182.09375 209.113281 182.027344 208.667969 181.890625 206.730469 C 181.859375 206.292969 181.828125 205.808594 181.792969 205.546875 C 181.75 205.917969 181.707031 206.75 181.667969 207.449219 C 181.546875 209.707031 181.53125 209.347656 181.449219 209.421875 C 181.414062 209.316406 181.382812 209.847656 181.230469 207.484375 C 181.144531 206.207031 181.023438 204.296875 180.882812 204.054688 C 180.554688 204.613281 180.277344 218.859375 179.828125 210.234375 C 179.632812 206.511719 179.441406 199.363281 179.277344 198.078125 C 179.105469 199.742188 178.957031 221.144531 177.910156 209.03125 C 177.785156 207.558594 177.625 205.734375 177.472656 205.5625 C 177.21875 205.847656 177.238281 209.371094 176.898438 209.085938 C 176.691406 208.910156 176.53125 205.597656 176.378906 204.992188 C 176.136719 205.992188 175.988281 213.453125 175.730469 213.46875 L 175.707031 213.472656 L 175.683594 213.453125 C 175.421875 213.21875 175.175781 199.742188 174.886719 198.304688 C 174.585938 199.832031 174.488281 213.214844 174.097656 213.214844 C 174.097656 213.214844 174.054688 213.214844 174.054688 213.214844 C 173.75 213.210938 173.605469 206.148438 173.40625 204.664062 C 173.300781 205.691406 173.320312 208.402344 173.035156 208.460938 C 172.816406 208.511719 172.742188 207.53125 172.640625 206.707031 C 172.5625 206.085938 172.332031 203.894531 172.027344 204.121094 C 170.9375 204.933594 171.339844 213.324219 170.804688 213.316406 C 170.417969 213.316406 170.382812 202.460938 170.230469 195.871094 C 170.09375 202.824219 170.179688 208.429688 169.898438 209.152344 L 169.875 209.136719 C 169.753906 209.042969 169.648438 205.539062 169.511719 204.691406 C 169.371094 205.75 169.390625 210.726562 169.089844 210.8125 C 168.667969 210.9375 168.601562 202.664062 168.183594 202.316406 C 167.789062 202.632812 167.539062 210.714844 167.304688 210.886719 L 167.285156 210.902344 L 167.25 210.898438 C 166.949219 210.828125 166.886719 201.722656 166.746094 198.691406 C 166.710938 199.34375 166.671875 200.460938 166.632812 201.621094 C 166.40625 208.148438 166.058594 212.898438 165.703125 206.371094 C 165.671875 205.769531 165.640625 205.152344 165.609375 204.808594 C 165.472656 206.257812 165.460938 209.648438 165.257812 209.90625 L 165.226562 209.890625 C 165.0625 209.789062 164.925781 203.460938 164.664062 202.839844 C 164.210938 203.933594 164.070312 228.289062 163.335938 203.472656 C 163.226562 199.796875 163.117188 196.011719 163.015625 194.972656 C 162.796875 197.714844 162.839844 214.101562 162.214844 214.234375 C 162.191406 214.238281 162.164062 214.234375 162.140625 214.214844 C 161.734375 213.90625 161.496094 205.375 161.15625 204.824219 C 161.042969 205.011719 160.960938 206.375 160.894531 207.378906 C 160.53125 213.160156 160.273438 205.328125 160.035156 204.078125 C 159.78125 205.445312 159.632812 215.210938 159.367188 215.234375 L 159.34375 215.238281 L 159.320312 215.21875 C 159.050781 214.976562 158.800781 197.234375 158.5 195.269531 C 158.183594 197.363281 158.097656 214.90625 157.683594 214.902344 C 157.382812 214.898438 157.238281 205.898438 157.039062 203.964844 C 156.9375 205.238281 156.945312 208.738281 156.671875 208.8125 C 156.648438 208.820312 156.625 208.816406 156.605469 208.800781 C 156.488281 208.722656 156.417969 208.09375 156.269531 206.582031 C 156.152344 205.34375 155.949219 203.277344 155.722656 203.226562 C 155.714844 203.226562 155.703125 203.226562 155.679688 203.242188 C 155.421875 203.433594 155.113281 204.949219 154.898438 207.109375 L 154.789062 207.101562 C 154.898438 206.015625 155.191406 203.460938 155.613281 203.152344 C 155.667969 203.113281 155.714844 203.113281 155.75 203.117188 C 156.246094 203.226562 156.414062 208.050781 156.648438 208.671875 C 156.875 208.027344 156.789062 203.773438 157.054688 203.613281 C 157.394531 206.089844 157.464844 213.214844 157.683594 214.65625 C 158.082031 211.957031 158.238281 178.023438 159.039062 206.066406 C 159.148438 209.90625 159.261719 213.855469 159.363281 214.890625 C 159.566406 212.839844 159.636719 205.234375 160.054688 203.867188 C 160.355469 205.117188 160.429688 208.601562 160.613281 209.308594 C 160.777344 208.628906 160.828125 204.824219 161.128906 204.707031 C 161.152344 204.695312 161.179688 204.699219 161.203125 204.714844 C 161.609375 204.972656 161.839844 213.628906 162.199219 214.113281 C 162.730469 213.449219 162.671875 194.632812 163.011719 194.613281 L 163.035156 194.613281 C 163.460938 199.523438 163.609375 212.691406 163.90625 214.351562 C 164.058594 213.445312 164.179688 207.839844 164.34375 204.917969 C 164.46875 202.714844 164.574219 202.707031 164.660156 202.699219 C 164.675781 202.699219 164.699219 202.703125 164.722656 202.722656 C 164.996094 202.964844 165.132812 207.960938 165.257812 209.472656 C 165.386719 207.796875 165.375 205 165.609375 204.445312 L 165.640625 204.460938 C 165.796875 204.558594 165.867188 208.792969 166.070312 209.335938 C 166.390625 208.535156 166.511719 199.152344 166.730469 198.03125 C 167 198.066406 167.003906 208.933594 167.265625 210.664062 C 167.480469 209.367188 167.675781 202.226562 168.179688 202.203125 C 168.714844 202.167969 168.78125 209.800781 169.070312 210.664062 C 169.300781 209.933594 169.210938 204.9375 169.523438 204.449219 C 170.621094 216.441406 168.902344 196.378906 169.910156 208.671875 C 170.074219 205.652344 170.023438 194.519531 170.214844 194.488281 L 170.242188 194.488281 C 170.242188 194.515625 170.617188 212.339844 170.8125 213.152344 C 170.90625 212.863281 171.035156 211.511719 171.15625 207.105469 L 171.097656 207.105469 C 171.203125 206.289062 171.488281 204.367188 171.894531 204.066406 C 172.378906 203.707031 172.546875 205.644531 172.675781 206.699219 C 172.761719 207.394531 172.859375 208.183594 172.945312 208.328125 C 173.132812 207.992188 173.113281 204.425781 173.316406 204.40625 L 173.339844 204.40625 C 173.695312 206.457031 173.738281 211.808594 173.964844 212.953125 C 174.398438 210.703125 174.445312 184.734375 175.234375 206.371094 C 175.34375 209.363281 175.453125 212.445312 175.554688 213.238281 C 175.625 212.6875 175.707031 211.074219 175.78125 209.621094 C 176.300781 199.304688 176.503906 208.019531 176.800781 208.890625 C 176.980469 208.316406 177.21875 201.019531 177.90625 208.957031 C 178.039062 210.523438 178.210938 212.46875 178.382812 212.625 C 178.902344 212.183594 178.863281 197.460938 179.191406 197.445312 L 179.214844 197.445312 L 179.238281 197.464844 C 179.507812 197.714844 179.765625 211.472656 180.082031 212.816406 C 180.304688 211.796875 180.636719 196.980469 181.308594 207.375 C 181.347656 208.015625 181.390625 208.671875 181.429688 209.019531 C 181.546875 207.808594 181.554688 205.496094 181.785156 205.09375 C 182.015625 205.621094 182.035156 208.511719 182.238281 208.910156 C 182.371094 208.671875 182.515625 207.125 182.894531 200.105469 C 183.148438 200.128906 183.183594 208.71875 183.429688 209.949219 C 183.5 209.632812 183.578125 208.636719 183.660156 207.671875 C 184.105469 202.285156 184.527344 201.71875 184.933594 207.191406 C 185.019531 208.378906 185.121094 209.710938 185.226562 209.945312 C 185.421875 209.488281 185.523438 201.292969 185.96875 207.253906 C 185.996094 207.664062 186.03125 208.109375 186.0625 208.398438 C 186.21875 206.203125 186.171875 197.375 186.394531 197.347656 C 186.59375 198.332031 186.640625 210.898438 186.964844 211.882812 C 187.054688 211.675781 187.183594 210.644531 187.304688 207.175781 L 187.308594 207.175781 C 187.421875 205.351562 187.726562 201.164062 188.160156 200.875 C 188.207031 200.84375 188.242188 200.847656 188.269531 200.855469 C 188.527344 200.945312 188.664062 202.550781 188.894531 206.363281 C 188.984375 207.832031 189.074219 209.34375 189.160156 209.738281 C 189.382812 208.640625 189.3125 201.703125 189.558594 201.652344 C 189.933594 205.660156 189.945312 216.699219 190.191406 219.332031 C 190.492188 215.964844 190.605469 187.894531 191 187.882812 L 191.023438 187.882812 L 191.042969 187.902344 C 191.371094 188.210938 191.621094 215.65625 191.863281 219.699219 C 191.96875 217.964844 192.148438 209.082031 192.273438 205.371094 C 192.386719 202.074219 192.445312 202.066406 192.527344 202.058594 L 192.550781 202.054688 L 192.578125 202.070312 C 192.773438 202.242188 192.914062 209.472656 193.109375 210.75 C 193.175781 210.296875 193.230469 208.898438 193.277344 207.648438 C 193.816406 193.996094 194.320312 217.4375 194.6875 218.46875 C 195.242188 216.90625 195.140625 187.25 195.496094 187.214844 L 195.519531 187.210938 L 195.542969 187.230469 C 195.8125 187.472656 196.066406 215.890625 196.390625 218.839844 C 196.605469 216.730469 196.957031 186.546875 197.617188 207.625 C 197.660156 208.984375 197.699219 210.296875 197.738281 211.015625 C 197.851562 208.621094 197.898438 203.109375 198.050781 203.003906 L 198.078125 202.984375 L 198.113281 203 C 198.179688 203.03125 198.199219 203.160156 198.296875 206.035156 C 198.355469 207.851562 198.4375 210.292969 198.546875 210.808594 C 198.660156 210.292969 198.800781 207.867188 199.207031 192.691406 C 199.464844 192.746094 199.484375 210.117188 199.738281 212.925781 C 199.808594 212.242188 199.886719 210.289062 199.96875 208.238281 C 200.84375 186.460938 201.246094 211.449219 201.535156 212.933594 C 201.78125 211.605469 201.664062 203.792969 201.984375 202.988281 C 202.226562 204.363281 202.253906 207.46875 202.371094 209.722656 C 202.371094 209.699219 202.566406 202.542969 202.699219 187.007812 C 202.699219 187.035156 203.078125 215.558594 203.273438 216.921875 C 203.402344 216.253906 203.515625 212.992188 203.617188 207.214844 L 203.539062 207.214844 C 203.582031 207.015625 203.953125 202.632812 204.492188 202.761719 C 204.769531 202.828125 204.921875 204.351562 205.117188 206.664062 C 205.203125 207.664062 205.296875 208.78125 205.382812 209.050781 C 205.613281 208.269531 205.519531 203.503906 205.78125 203.324219 C 206.128906 206.15625 206.183594 214.136719 206.40625 215.832031 C 206.609375 214.226562 206.761719 202.859375 206.9375 197.152344 C 207.375 183.222656 207.875 213.832031 208.066406 216.097656 C 208.273438 213.734375 208.339844 205.15625 208.753906 203.605469 C 209.0625 205.035156 209.117188 208.917969 209.3125 209.769531 C 209.558594 208.554688 209.742188 198.554688 210.40625 209.867188 C 210.542969 212.132812 210.707031 214.9375 210.882812 215.222656 C 211.304688 214.585938 211.207031 203.796875 211.707031 193.117188 C 212.132812 198.679688 212.273438 213.558594 212.570312 215.484375 C 212.78125 214.050781 213.132812 192.597656 213.792969 207.558594 C 213.832031 208.488281 213.875 209.4375 213.910156 209.957031 C 214.019531 208.367188 214.074219 204.355469 214.230469 204.277344 L 214.257812 204.261719 C 214.480469 204.722656 214.507812 209.144531 214.71875 209.804688 C 214.84375 209.425781 214.980469 207.507812 215.371094 196.992188 C 215.640625 197.03125 215.644531 209.328125 215.902344 211.304688 C 215.972656 210.824219 216.054688 209.386719 216.132812 207.992188 C 217.007812 192.511719 217.421875 210.359375 217.6875 211.308594 C 217.933594 210.394531 217.804688 204.855469 218.140625 204.269531 C 218.398438 205.5625 218.394531 207.304688 218.519531 209.042969 C 218.675781 205.804688 218.640625 193.011719 218.824219 192.976562 L 218.847656 192.976562 C 219.054688 194.300781 219.085938 212.546875 219.417969 214.128906 C 219.511719 213.789062 219.636719 212.242188 219.757812 207.269531 L 219.867188 207.273438 C 219.699219 214.304688 219.53125 214.304688 219.410156 214.304688 C 219.027344 214.304688 218.992188 201.960938 218.835938 194.539062 C 218.742188 200.246094 218.753906 209.535156 218.535156 209.578125 L 218.511719 209.582031 L 218.488281 209.570312 C 218.363281 209.472656 218.269531 205.554688 218.125 204.53125 C 217.96875 205.90625 218.023438 211.363281 217.710938 211.464844 C 217.292969 211.609375 217.230469 202.292969 216.8125 201.839844 C 216.429688 202.238281 216.261719 209.875 215.917969 211.570312 C 215.570312 211.484375 215.539062 201.554688 215.386719 197.734375 C 215.222656 201.332031 215.121094 209.925781 214.722656 209.957031 C 214.429688 209.988281 214.390625 206.277344 214.257812 204.667969 C 214.136719 206.167969 214.085938 210.351562 213.941406 210.425781 L 213.910156 210.4375 L 213.882812 210.421875 C 213.71875 210.324219 213.585938 203.167969 213.324219 202.433594 C 212.972656 203.445312 212.921875 215.714844 212.574219 215.722656 L 212.550781 215.722656 L 212.527344 215.703125 C 212.183594 215.378906 211.933594 196.386719 211.691406 193.519531 C 211.472656 196.636719 211.515625 215.195312 210.894531 215.34375 C 210.386719 215.460938 210.222656 205.417969 209.847656 204.683594 C 209.613281 205.160156 209.589844 209.921875 209.320312 209.957031 C 209.03125 210 208.921875 204.964844 208.738281 203.839844 C 208.492188 205.375 208.328125 216.453125 208.074219 216.476562 L 208.050781 216.480469 L 208.027344 216.460938 C 207.761719 216.226562 207.511719 196.058594 207.210938 193.855469 C 207.007812 195.445312 206.855469 206.847656 206.675781 212.554688 C 206.335938 223.507812 205.960938 205.890625 205.765625 203.710938 C 205.738281 204.117188 205.714844 204.875 205.691406 205.613281 C 205.570312 209.546875 205.351562 210.757812 205.007812 206.675781 C 204.886719 205.269531 204.6875 202.921875 204.460938 202.867188 C 204.066406 202.78125 203.683594 206.875 203.644531 207.277344 C 203.476562 217.109375 203.308594 217.105469 203.1875 217.105469 C 202.816406 217.101562 202.800781 201.902344 202.617188 189.3125 C 202.515625 197.925781 202.53125 210.394531 202.320312 210.453125 L 202.292969 210.460938 L 202.269531 210.445312 C 202.132812 210.34375 202.066406 204.984375 201.90625 203.375 C 201.734375 205.488281 201.828125 213.347656 201.433594 213.105469 C 201.09375 212.902344 200.992188 200.320312 200.589844 199.570312 C 200.175781 200.316406 199.960938 213.074219 199.714844 213.238281 L 199.691406 213.253906 L 199.660156 213.246094 C 199.371094 213.136719 199.3125 199.023438 199.164062 193.808594 C 198.960938 200.136719 198.917969 211.371094 198.449219 210.96875 C 198.21875 210.769531 198.148438 205.476562 198.035156 203.566406 C 197.925781 205.554688 197.859375 211.550781 197.726562 211.640625 L 197.699219 211.660156 L 197.667969 211.648438 C 197.488281 211.554688 197.375 201.574219 197.105469 200.414062 C 196.734375 202.007812 196.722656 219.085938 196.355469 219.101562 L 196.332031 219.101562 L 196.308594 219.082031 C 195.96875 218.761719 195.710938 191.925781 195.46875 187.882812 C 195.257812 192.148438 195.285156 218.363281 194.683594 218.566406 C 194.167969 218.734375 194 204.714844 193.625 203.574219 C 193.390625 204.34375 193.402344 210.363281 193.078125 210.992188 C 192.664062 208.449219 192.738281 204.34375 192.519531 202.402344 C 192.253906 204.761719 192.121094 220.125 191.855469 220.164062 L 191.832031 220.167969 " fill-opacity="1" fill-rule="nonzero"/></g><g clip-path="url(#id7)"><path fill="#100f0d" d="M 160.464844 206.429688 Z M 172.125 227.386719 C 172.125 227.351562 171.789062 191.875 171.546875 190.976562 C 171.410156 191.355469 171.175781 202.773438 171.175781 202.773438 C 171.175781 202.773438 170.773438 208.007812 170.347656 208.304688 C 170.308594 208.328125 170.28125 208.324219 170.257812 208.320312 C 169.773438 208.175781 169.601562 200.941406 169.359375 200.597656 C 169.136719 200.902344 169.152344 207.597656 168.984375 207.628906 L 168.96875 207.628906 C 168.625 203.066406 168.550781 193.121094 168.335938 192.214844 C 168.023438 193.542969 167.898438 219.496094 167.535156 219.503906 L 167.519531 219.503906 L 167.503906 219.496094 C 167.183594 219.1875 166.914062 193.523438 166.671875 191.789062 C 166.546875 192.699219 166.398438 200.292969 166.238281 204.445312 C 166.128906 207.269531 166.058594 207.277344 166.011719 207.285156 L 165.996094 207.285156 L 165.980469 207.273438 C 165.792969 207.113281 165.632812 200.152344 165.429688 199.6875 C 165.261719 200.109375 165.195312 205.972656 164.917969 206.125 C 164.902344 206.132812 164.886719 206.132812 164.871094 206.125 C 164.472656 205.90625 164.234375 193.296875 163.859375 193.101562 C 163.308594 193.40625 163.355469 220.058594 163.054688 220.082031 L 163.042969 220.082031 L 163.03125 220.074219 C 162.769531 219.839844 162.496094 193.808594 162.171875 192.667969 C 161.921875 193.582031 161.84375 208.855469 161.421875 208.898438 C 161.414062 208.898438 161.398438 208.898438 161.386719 208.882812 C 161.097656 208.632812 160.957031 200.375 160.828125 199.199219 C 160.722656 200.234375 160.644531 206.386719 160.5 206.472656 L 160.488281 206.480469 L 160.46875 206.472656 C 160.328125 206.394531 160.242188 199.960938 160.023438 199.675781 C 159.785156 199.949219 159.363281 215.328125 159.363281 215.355469 C 159.363281 215.328125 158.957031 198.214844 158.839844 197.746094 C 158.621094 198.640625 158.425781 209.558594 157.933594 209.589844 C 157.921875 209.589844 157.90625 209.585938 157.886719 209.570312 C 157.449219 209.175781 157.332031 198.277344 157.054688 197.832031 C 156.816406 198.195312 156.84375 206.4375 156.625 206.472656 L 156.609375 206.476562 L 156.597656 206.464844 C 156.4375 206.335938 156.320312 201.242188 156.21875 200.253906 C 156.050781 202.246094 156.0625 220.21875 155.914062 220.253906 L 155.902344 220.253906 L 155.890625 220.25 C 155.890625 220.246094 155.5625 194.886719 155.328125 194.375 C 155.191406 194.5625 155.066406 197.414062 154.957031 202.855469 L 154.902344 202.851562 C 155.222656 186.570312 155.605469 195.917969 155.800781 212.335938 C 155.839844 215.691406 155.875 218.679688 155.90625 219.773438 C 156.011719 216.085938 156 200.128906 156.222656 200.078125 L 156.238281 200.085938 C 156.34375 200.167969 156.472656 205.824219 156.617188 206.386719 C 156.683594 206.09375 156.726562 204.363281 156.765625 202.6875 C 156.917969 196.230469 157.144531 195.984375 157.425781 202.824219 C 157.441406 203.132812 157.660156 209.484375 157.929688 209.53125 C 158.3125 209.46875 158.492188 200.335938 158.832031 197.65625 C 159.132812 197.742188 159.21875 212.933594 159.355469 215.109375 C 159.394531 214.496094 159.441406 212.59375 159.496094 210.445312 C 160 190.121094 160.226562 204.402344 160.484375 206.347656 C 160.625 205.289062 160.617188 200.421875 160.828125 199.035156 C 161.058594 200.597656 161.148438 208.519531 161.417969 208.839844 C 161.921875 208.300781 161.972656 173.109375 162.707031 207.882812 C 162.824219 213.445312 162.945312 219.191406 163.050781 219.957031 C 163.136719 219.324219 163.191406 215.304688 163.25 210.699219 C 163.730469 174.074219 164.449219 205.695312 164.894531 206.074219 C 165.023438 205.960938 165.113281 203.953125 165.179688 202.480469 C 165.386719 197.910156 165.550781 199.164062 165.769531 203.699219 C 165.84375 205.21875 165.929688 206.933594 166.003906 207.203125 C 166.265625 206.292969 166.4375 191.691406 166.667969 191.664062 L 166.679688 191.660156 C 167.148438 201.226562 167.242188 218.210938 167.53125 219.414062 C 167.957031 217.621094 168.007812 174.503906 168.714844 200.386719 C 168.800781 203.621094 168.890625 206.957031 168.976562 207.507812 C 169.210938 205.757812 169.144531 195.511719 169.707031 203.585938 C 169.84375 205.53125 170.03125 208.195312 170.273438 208.265625 C 170.28125 208.269531 170.296875 208.269531 170.316406 208.257812 C 170.589844 208.066406 171.125 202.882812 171.125 202.882812 L 171.089844 202.882812 C 171.410156 179.902344 171.796875 193.257812 171.988281 216.328125 C 172.027344 221.058594 172.0625 225.273438 172.097656 226.828125 C 172.191406 222.085938 172.195312 199.097656 172.410156 199.023438 C 172.582031 200.320312 172.664062 207.078125 172.808594 207.925781 C 172.875 207.496094 172.917969 205.058594 172.957031 202.699219 C 173.113281 193.125 173.355469 193.714844 173.625 202.890625 C 173.746094 207.0625 173.898438 212.253906 174.128906 212.378906 C 174.527344 212.160156 174.679688 199.269531 175.039062 195.601562 C 175.359375 195.742188 175.402344 216.710938 175.554688 220.242188 C 175.6875 217.40625 175.839844 198.429688 176.226562 198.375 C 176.234375 198.371094 176.246094 198.375 176.253906 198.382812 C 176.492188 198.582031 176.578125 206.730469 176.691406 207.882812 C 176.691406 207.855469 176.820312 206.117188 177.027344 197.554688 C 177.03125 197.578125 177.464844 211.042969 177.625 211.390625 C 177.996094 210.582031 178.0625 188.453125 178.378906 188.4375 L 178.390625 188.4375 L 178.40625 188.449219 C 178.753906 188.777344 179.019531 224.621094 179.269531 227.085938 C 179.503906 224.496094 179.453125 188.671875 180.105469 189.097656 C 180.515625 189.363281 180.753906 206.941406 181.117188 207.492188 C 181.441406 206.984375 181.492188 189.632812 181.996094 204.125 C 182.074219 206.371094 182.15625 208.6875 182.230469 209.078125 C 182.316406 208.644531 182.90625 187.160156 182.910156 187.136719 C 182.910156 187.160156 183.644531 225.59375 183.761719 226.328125 C 183.835938 225.863281 184.554688 187.8125 184.554688 187.789062 L 184.570312 187.785156 C 184.851562 187.792969 185.011719 207.613281 185.214844 209.507812 C 185.324219 208.332031 185.328125 199.816406 185.578125 199.679688 C 185.589844 199.675781 185.605469 199.675781 185.617188 199.679688 C 185.886719 199.832031 186.398438 222.015625 187.367188 202.933594 C 187.683594 192.113281 188.066406 197.789062 188.269531 209.476562 C 188.308594 211.785156 188.34375 213.835938 188.378906 214.578125 C 188.476562 212.140625 188.46875 201.105469 188.695312 201.066406 C 188.882812 201.996094 188.941406 205.027344 189.089844 205.398438 C 189.15625 205.210938 189.199219 203.96875 189.238281 202.863281 C 189.394531 198.199219 189.632812 198.488281 189.902344 202.957031 C 190.632812 214.96875 190.902344 199.347656 191.289062 199.4375 C 191.566406 199.5 191.664062 209.925781 191.792969 211.363281 C 191.929688 209.96875 192.078125 200.800781 192.460938 200.777344 C 192.472656 200.773438 192.484375 200.777344 192.5 200.789062 C 192.632812 200.90625 192.707031 202.066406 192.800781 203.691406 C 192.839844 204.421875 192.882812 205.175781 192.925781 205.378906 C 193.035156 204.824219 193.128906 200.4375 193.257812 200.386719 L 193.269531 200.378906 L 193.285156 200.386719 C 193.429688 200.480469 193.589844 206.945312 193.859375 207.078125 C 194.207031 206.898438 194.3125 195.976562 194.609375 195.972656 C 194.996094 195.980469 195.238281 213.484375 195.492188 214.671875 C 195.722656 213.511719 195.691406 196.40625 196.292969 196.289062 C 196.304688 196.285156 196.324219 196.285156 196.34375 196.300781 C 196.738281 196.605469 196.992188 205.109375 197.335938 205.1875 C 197.585938 205.09375 197.628906 200.800781 197.867188 200.777344 C 197.875 200.773438 197.890625 200.777344 197.902344 200.789062 C 198.121094 200.96875 198.28125 205.59375 198.449219 205.960938 C 198.703125 205.40625 198.882812 195.363281 199.113281 195.34375 L 199.125 195.34375 C 199.574219 201.726562 199.695312 213.578125 199.972656 214.304688 C 200.398438 213.152344 200.449219 183.601562 201.152344 201.308594 C 201.242188 203.425781 201.335938 205.808594 201.421875 206.171875 C 201.53125 205.621094 201.527344 201.476562 201.789062 201.40625 C 201.800781 201.402344 201.816406 201.402344 201.832031 201.414062 C 201.941406 201.492188 202.019531 202.21875 202.152344 203.496094 C 202.285156 204.816406 202.472656 206.632812 202.710938 206.683594 C 202.734375 206.6875 202.757812 206.679688 202.785156 206.664062 C 203.050781 206.464844 203.347656 205.058594 203.566406 202.992188 C 203.566406 202.992188 203.90625 195.492188 203.996094 195.492188 C 204.359375 195.492188 204.460938 214.691406 204.570312 217.753906 C 204.675781 214.460938 204.65625 200.578125 204.882812 200.53125 C 205.1875 205.535156 205.246094 205.9375 205.277344 206.050781 C 205.4375 205.460938 205.554688 191.640625 206.089844 202.933594 C 206.757812 217.03125 207.03125 201.640625 207.492188 198.414062 L 207.511719 198.414062 C 207.792969 198.496094 207.878906 211.769531 208.015625 213.675781 C 208.152344 211.882812 208.296875 200.164062 208.683594 200.128906 C 208.691406 200.128906 208.707031 200.128906 208.71875 200.140625 C 208.945312 200.339844 209.039062 205.300781 209.148438 206.015625 C 209.261719 205.261719 209.34375 199.695312 209.476562 199.625 L 209.488281 199.621094 L 209.503906 199.628906 C 209.652344 199.714844 209.808594 207.898438 210.078125 208.1875 C 210.597656 207.640625 210.632812 176.984375 211.367188 207.355469 C 211.484375 212.226562 211.605469 217.25 211.714844 217.910156 C 211.800781 217.351562 211.851562 213.6875 211.910156 209.820312 C 212.390625 177.726562 213.113281 205.558594 213.558594 205.773438 C 213.878906 205.613281 213.925781 194.648438 214.433594 203.699219 C 214.507812 205.03125 214.589844 206.53125 214.667969 206.757812 C 214.925781 205.992188 215.101562 193.199219 215.332031 193.175781 L 215.34375 193.171875 L 215.355469 193.179688 C 215.613281 193.40625 215.886719 216.351562 216.191406 217.4375 C 216.507812 216.277344 216.738281 184.921875 217.207031 195.882812 C 217.355469 199.386719 217.503906 206.28125 217.636719 207.027344 C 217.679688 206.761719 217.710938 205.734375 217.738281 204.734375 C 217.78125 203.351562 217.820312 200.792969 218.046875 200.941406 C 218.316406 201.117188 218.507812 207.578125 218.933594 207.6875 C 219.375 207.800781 219.75 203.40625 219.785156 202.960938 L 219.839844 202.960938 C 219.757812 204.003906 219.445312 207.414062 219.015625 207.722656 C 218.40625 208.15625 218.296875 201.304688 218.023438 200.992188 C 217.800781 201.238281 217.8125 207.113281 217.644531 207.136719 L 217.632812 207.140625 L 217.621094 207.128906 C 217.417969 206.964844 217.214844 194.453125 216.996094 193.660156 C 216.78125 194.464844 216.621094 207.503906 216.4375 213.753906 C 216.003906 228.617188 215.601562 194.941406 215.335938 193.289062 C 215.144531 194.484375 214.96875 206.808594 214.667969 206.835938 C 214.453125 206.859375 214.292969 200.589844 214.09375 200.195312 C 213.914062 200.5625 213.863281 205.6875 213.578125 205.824219 C 213.5625 205.832031 213.546875 205.832031 213.53125 205.824219 C 213.132812 205.589844 212.894531 194.59375 212.523438 194.4375 C 211.960938 194.683594 212.03125 218 211.703125 218.023438 L 211.691406 218.015625 C 211.433594 217.78125 211.15625 195.023438 210.832031 194.058594 C 210.570312 194.875 210.511719 208.644531 210.046875 208.234375 C 209.757812 207.980469 209.617188 200.78125 209.492188 199.765625 C 209.378906 200.71875 209.3125 206.046875 209.160156 206.128906 L 209.148438 206.132812 L 209.128906 206.125 C 208.988281 206.046875 208.902344 200.449219 208.6875 200.1875 C 208.445312 200.464844 208.023438 213.867188 208.023438 213.894531 C 208.023438 213.867188 207.617188 198.910156 207.503906 198.496094 C 207.285156 199.25 207.078125 209.308594 206.546875 208.832031 C 206.109375 208.4375 205.992188 198.9375 205.714844 198.574219 C 205.472656 198.875 205.507812 206.097656 205.285156 206.128906 C 205.273438 206.128906 205.261719 206.128906 205.253906 206.121094 C 205.097656 205.992188 204.976562 201.519531 204.878906 200.6875 C 204.835938 201.160156 204.5625 218.152344 204.5625 218.175781 C 204.554688 217.683594 204.210938 195.96875 203.988281 195.550781 C 203.851562 195.707031 203.726562 198.203125 203.621094 202.960938 L 203.617188 202.960938 C 203.535156 203.765625 203.230469 206.355469 202.816406 206.664062 C 202.777344 206.6875 202.738281 206.699219 202.703125 206.691406 C 202.21875 206.59375 202.035156 201.539062 201.796875 201.414062 C 201.679688 201.480469 201.617188 203.199219 201.574219 204.335938 C 201.515625 205.949219 201.492188 206.210938 201.421875 206.21875 L 201.410156 206.21875 C 201.074219 203.125 200.984375 196.242188 200.777344 195.6875 C 200.460938 196.546875 200.34375 214.320312 199.972656 214.328125 C 199.605469 214.332031 199.367188 196.59375 199.113281 195.394531 C 198.988281 195.988281 198.839844 201.203125 198.675781 204.035156 C 198.566406 205.972656 198.5 205.980469 198.449219 205.984375 C 198.441406 205.984375 198.429688 205.984375 198.421875 205.972656 C 198.332031 205.898438 198.261719 204.992188 198.15625 203.527344 C 198.070312 202.359375 197.96875 200.90625 197.871094 200.789062 C 197.800781 200.875 197.734375 201.84375 197.675781 202.699219 C 197.578125 204.210938 197.503906 205.136719 197.355469 205.195312 C 197.335938 205.199219 197.320312 205.195312 197.304688 205.1875 C 196.914062 204.9375 196.683594 196.585938 196.308594 196.300781 C 195.871094 196.371094 195.882812 206.523438 195.484375 214.722656 C 195.035156 208.554688 194.902344 196.640625 194.609375 196 C 194.355469 196.589844 194.289062 207.488281 193.824219 207.070312 C 193.539062 206.820312 193.394531 201.210938 193.269531 200.453125 C 193.226562 200.738281 193.179688 201.800781 193.136719 202.753906 C 193.050781 204.765625 193.011719 205.402344 192.9375 205.429688 L 192.925781 205.4375 L 192.90625 205.425781 C 192.851562 205.394531 192.824219 205.015625 192.746094 203.648438 C 192.679688 202.535156 192.585938 200.851562 192.464844 200.789062 C 192.300781 200.875 192.148438 203.425781 191.804688 211.496094 C 191.589844 210.609375 191.523438 200.101562 191.28125 199.464844 C 191.039062 200.097656 190.535156 214.832031 189.816406 202.933594 C 189.722656 201.386719 189.613281 199.632812 189.496094 199.527344 C 189.371094 199.636719 189.308594 201.484375 189.261719 202.839844 C 189.191406 204.867188 189.160156 205.421875 189.066406 205.429688 C 189.050781 205.433594 189.042969 205.429688 189.035156 205.421875 C 188.875 205.292969 188.757812 201.816406 188.660156 201.175781 C 188.636719 201.371094 188.34375 214.816406 188.34375 214.839844 C 188.078125 202.117188 187.9375 197.40625 187.769531 197.167969 C 187.671875 197.246094 187.53125 198.324219 187.398438 202.949219 L 187.394531 202.949219 C 187.304688 204.730469 186.988281 210.300781 186.550781 210.578125 C 186.527344 210.59375 186.5 210.597656 186.476562 210.585938 C 186.003906 210.390625 185.816406 200.269531 185.578125 199.726562 C 185.359375 200.222656 185.371094 209.570312 185.207031 209.613281 L 185.195312 209.617188 C 185.195312 209.589844 184.617188 188.3125 184.554688 187.929688 C 184.242188 189.90625 184.121094 226.3125 183.753906 226.328125 L 183.742188 226.328125 L 183.730469 226.316406 C 183.40625 226.011719 183.136719 189.851562 182.894531 187.335938 C 182.703125 189.304688 182.925781 190.9375 182.21875 209.128906 C 181.710938 197.882812 181.671875 198.515625 181.652344 198.445312 C 181.472656 199.097656 181.417969 207.285156 181.140625 207.496094 C 181.128906 207.507812 181.109375 207.511719 181.097656 207.503906 C 180.691406 207.3125 180.464844 189.671875 180.082031 189.171875 C 179.554688 189.828125 179.636719 219.140625 179.265625 227.140625 C 178.8125 214.496094 178.6875 190.121094 178.390625 188.566406 C 178.214844 189.515625 178.105469 200.960938 177.929688 207.160156 C 177.558594 219.992188 177.210938 199.84375 177.050781 197.761719 C 177.050781 197.785156 176.941406 199.3125 176.710938 207.996094 L 176.691406 207.988281 C 176.546875 207.925781 176.464844 198.957031 176.246094 198.429688 C 176.003906 198.992188 175.582031 220.460938 175.582031 220.488281 C 175.582031 220.460938 175.15625 196.269531 175.0625 195.714844 C 174.847656 196.976562 174.636719 212.328125 174.15625 212.371094 C 174.144531 212.371094 174.132812 212.371094 174.117188 212.355469 C 173.675781 211.964844 173.550781 196.542969 173.273438 195.832031 C 173.050781 196.390625 173.082031 206.289062 172.832031 207.992188 C 172.679688 206.453125 172.726562 208.121094 172.5625 202.714844 C 172.519531 201.265625 172.476562 199.777344 172.4375 199.25 C 172.273438 202.058594 172.28125 227.335938 172.136719 227.378906 L 172.125 227.386719 " fill-opacity="1" fill-rule="nonzero"/></g><g clip-path="url(#id8)"><g clip-path="url(#id9)"><g clip-path="url(#id10)"><g clip-path="url(#id11)"><path fill="#000000" d="M 147.835938 86.597656 L 125.09375 89.710938 C 124.347656 89.808594 123.707031 90.3125 123.449219 91.015625 C 123.191406 91.71875 123.335938 92.507812 123.839844 93.0625 L 129.914062 99.792969 L 111.054688 102.382812 C 110.304688 102.480469 109.664062 102.984375 109.40625 103.6875 C 109.148438 104.390625 109.292969 105.175781 109.796875 105.734375 L 127.132812 124.945312 C 127.632812 125.5 128.402344 125.726562 129.128906 125.542969 C 129.449219 125.453125 129.742188 125.292969 129.984375 125.078125 C 130.285156 124.804688 130.507812 124.441406 130.59375 124.039062 L 135.097656 105.542969 L 141.171875 112.273438 C 141.675781 112.828125 142.445312 113.054688 143.171875 112.871094 C 143.488281 112.78125 143.785156 112.621094 144.027344 112.40625 C 144.316406 112.140625 144.539062 111.78125 144.636719 111.367188 L 150.0625 89.0625 C 150.222656 88.414062 150.042969 87.726562 149.601562 87.242188 C 149.160156 86.753906 148.5 86.503906 147.835938 86.597656 Z M 147.835938 86.597656 " fill-opacity="1" fill-rule="nonzero"/></g></g></g></g><g fill="#000000" fill-opacity="1"><g transform="translate(115.492814, 145.946022)"><g><path d="M 9.625 -17 L 1.484375 -2.625 L -22.734375 -16.34375 L -14.59375 -30.71875 L -9.34375 -27.75 L -13.78125 -19.90625 L -9.96875 -17.75 L -5.859375 -25.015625 L -0.609375 -22.03125 L -4.71875 -14.765625 L -0.140625 -12.171875 L 4.296875 -20.015625 Z M 9.625 -17 "/></g></g></g><g fill="#000000" fill-opacity="1"><g transform="translate(125.020519, 129.675961)"><g/></g></g><g fill="#000000" fill-opacity="1"><g transform="translate(130.344212, 123.047509)"><g/></g></g><g fill="#000000" fill-opacity="1"><g transform="translate(136.365708, 117.045874)"><g/></g></g><g fill="#000000" fill-opacity="1"><g transform="translate(143.011701, 111.744104)"><g/></g></g><g fill="#000000" fill-opacity="1"><g transform="translate(150.201294, 107.206746)"><g/></g></g><g fill="#000000" fill-opacity="1"><g transform="translate(155.90796, 102.814203)"><g><path d="M 25.359375 -19.890625 C 26.722656 -13.734375 25.679688 -9.148438 22.234375 -6.140625 L 30.5625 0.03125 L 21.40625 2.046875 L 15.296875 -2.9375 L 15.28125 -2.953125 L 15.28125 -2.96875 L 15.234375 -2.984375 C 10.960938 -2.046875 7.425781 -2.515625 4.625 -4.390625 C 1.832031 -6.273438 -0.0664062 -9.507812 -1.078125 -14.09375 C -2.078125 -18.613281 -1.707031 -22.316406 0.03125 -25.203125 C 1.769531 -28.085938 4.796875 -30.007812 9.109375 -30.96875 C 13.429688 -31.925781 16.96875 -31.460938 19.71875 -29.578125 C 22.46875 -27.703125 24.347656 -24.472656 25.359375 -19.890625 Z M 6.65625 -15.765625 C 7.820312 -10.515625 10.234375 -8.289062 13.890625 -9.09375 C 15.742188 -9.507812 16.976562 -10.453125 17.59375 -11.921875 C 18.21875 -13.398438 18.226562 -15.488281 17.625 -18.1875 C 17.03125 -20.90625 16.132812 -22.8125 14.9375 -23.90625 C 13.738281 -25 12.238281 -25.347656 10.4375 -24.953125 C 6.75 -24.140625 5.488281 -21.078125 6.65625 -15.765625 Z M 6.65625 -15.765625 "/></g></g></g><g fill="#000000" fill-opacity="1"><g transform="translate(181.649186, 96.479755)"><g><path d="M 29.625 -24.671875 L 27.75 -8 C 27.332031 -4.394531 25.988281 -1.71875 23.71875 0.03125 C 21.445312 1.789062 18.378906 2.453125 14.515625 2.015625 C 10.742188 1.597656 7.957031 0.3125 6.15625 -1.84375 C 4.351562 -4.007812 3.65625 -6.898438 4.0625 -10.515625 L 5.96875 -27.34375 L 13.484375 -26.5 L 11.65625 -10.25 C 11.425781 -8.300781 11.625 -6.84375 12.25 -5.875 C 12.882812 -4.914062 13.914062 -4.359375 15.34375 -4.203125 C 16.863281 -4.023438 18.015625 -4.332031 18.796875 -5.125 C 19.585938 -5.925781 20.097656 -7.320312 20.328125 -9.3125 L 22.15625 -25.515625 Z M 29.625 -24.671875 "/></g></g></g><g fill="#000000" fill-opacity="1"><g transform="translate(207.008292, 99.358696)"><g><path d="M 18.0625 7.421875 L 2.78125 1.140625 L 13.375 -24.609375 L 28.65625 -18.328125 L 26.34375 -12.734375 L 18.015625 -16.15625 L 16.359375 -12.109375 L 24.078125 -8.9375 L 21.78125 -3.359375 L 14.0625 -6.53125 L 12.0625 -1.671875 L 20.390625 1.75 Z M 18.0625 7.421875 "/></g></g></g><g fill="#000000" fill-opacity="1"><g transform="translate(223.674381, 105.020838)"><g><path d="M 38.1875 -5.359375 L 27.8125 7.8125 C 25.5625 10.664062 23.003906 12.238281 20.140625 12.53125 C 17.285156 12.832031 14.332031 11.78125 11.28125 9.375 C 8.300781 7.019531 6.613281 4.445312 6.21875 1.65625 C 5.820312 -1.125 6.75 -3.941406 9 -6.796875 L 19.484375 -20.109375 L 25.421875 -15.421875 L 15.3125 -2.578125 C 14.09375 -1.035156 13.492188 0.304688 13.515625 1.453125 C 13.546875 2.609375 14.125 3.632812 15.25 4.53125 C 16.445312 5.476562 17.59375 5.816406 18.6875 5.546875 C 19.78125 5.285156 20.945312 4.367188 22.1875 2.796875 L 32.28125 -10.015625 Z M 38.1875 -5.359375 "/></g></g></g><g fill="#000000" fill-opacity="1"><g transform="translate(243.712696, 120.827028)"><g><path d="M 11.4375 15.828125 L 1.765625 2.4375 L 24.328125 -13.875 L 34 -0.484375 L 29.109375 3.0625 L 23.84375 -4.234375 L 20.296875 -1.671875 L 25.1875 5.09375 L 20.296875 8.625 L 15.40625 1.859375 L 11.140625 4.9375 L 16.40625 12.234375 Z M 11.4375 15.828125 "/></g></g></g><g fill="#000000" fill-opacity="1"><g transform="translate(254.544445, 136.259989)"><g/></g></g></svg>